# xmcd
#
# Track frame offsets: 
#        150
#        28400
#        50319
#        78944
#        103909
#        120606
#        137163
#        151022
#        161294
#        183506
#        202155
#        236352
#        260491
#        274347
#        302706
#
# Disc length: 4502 seconds
#
# Revision: 0
# Processed by: cddbd v1.5.2PL0 Copyright (c) Steve Scherf et al.
# Submitted via: ExactAudioCopy v0.99pb4
#
DISCID=cd11940f
DTITLE=Fabrizio De André - Creuza de mä and Nuvole
DYEAR=2001
DGENRE=Blues
TTITLE0=Creuza de mä
TTITLE1=Jamin-a
TTITLE2=Sidun
TTITLE3=Sinan capudàn pascià
TTITLE4='A pittima
TTITLE5=A dumenega
TTITLE6=Da a me riva
TTITLE7=Le nuvole
TTITLE8=Ottocento
TTITLE9=Don Raffae'
TTITLE10=La domenica delle salme
TTITLE11=Mégu Megún
TTITLE12=La nova gelosia
TTITLE13='Â çímma
TTITLE14=Monti di Mola
EXTD=
EXTT0=
EXTT1=
EXTT2=
EXTT3=
EXTT4=
EXTT5=
EXTT6=
EXTT7=
EXTT8=
EXTT9=
EXTT10=
EXTT11=
EXTT12=
EXTT13=
EXTT14=
PLAYORDER=
